<?xml version="1.0" ?><svg fill="none" height="96" viewBox="0 0 96 96" width="96" xmlns="http://www.w3.org/2000/svg"><path d="M61.2006 37.4361C62.523 35.0155 63.2825 32.1877 63.2825 29.1667C63.2825 20.2208 56.6224 12.9686 48.4067 12.9686C40.191 12.9686 33.5309 20.2208 33.5309 29.1667C33.5309 32.2426 34.3182 35.1182 35.6854 37.5677C28.6147 36.8214 20.8439 37.6014 19.3163 43.7119C17.0624 52.7282 27.0292 55.7999 37.5583 54.9225C35.4196 60.9991 31.9771 67.5709 27.25 69.4967C18.3245 73.133 21.2997 85.6948 32.2086 83.7114C40.9357 82.1246 46.4232 74.6757 48.0761 71.1496C50.3901 75.7776 57.3983 84.7692 66.9188 83.7114C76.4393 82.6536 77.4972 75.7776 76.836 72.4719C76.3953 70.7088 74.0592 67.2488 68.2411 67.5133C63.3572 67.7353 59.9641 61.3978 57.9617 55.1083C68.8915 55.5235 79.2358 51.8337 76.5281 42.5799C74.8812 36.9512 67.8827 36.4272 61.2006 37.4361Z" fill="#DFA158"/><path clip-rule="evenodd" d="M76.836 72.4719C77.4972 75.7776 76.4393 82.6536 66.9188 83.7114C58.6758 84.6273 52.3161 78.0097 49.2559 73.2134C48.7816 72.4701 48.3866 71.7706 48.0761 71.1496C47.798 71.743 47.4113 72.4474 46.9188 73.2163C44.4847 77.0167 39.4672 82.3917 32.2086 83.7114C21.2997 85.6948 18.3245 73.133 27.25 69.4967C31.4456 67.7874 34.6292 62.4182 36.7874 56.9837C37.0608 56.2953 37.3178 55.6057 37.5583 54.9225C36.8307 54.9831 36.1058 55.0249 35.3875 55.0471C25.7102 55.347 17.2181 52.1052 19.3164 43.7119C20.6764 38.2713 26.9859 37.0565 33.3438 37.3823C34.1267 37.4224 34.9103 37.4859 35.6854 37.5677C35.3116 36.8979 34.9811 36.1963 34.6982 35.4674C33.9465 33.5306 33.5309 31.4015 33.5309 29.1667C33.5309 20.2208 40.191 12.9686 48.4067 12.9686C56.6224 12.9686 63.2825 20.2208 63.2825 29.1667C63.2825 31.3312 62.8926 33.3965 62.1852 35.2839C61.9052 36.0308 61.5756 36.7498 61.2006 37.4361C61.9916 37.3167 62.7871 37.2187 63.5776 37.1482C69.4646 36.6228 75.0761 37.6175 76.5281 42.5799C79.0604 51.2343 70.1768 55.0222 60.0747 55.1369C59.3751 55.1448 58.6696 55.1352 57.9617 55.1083C58.1769 55.7842 58.4082 56.4607 58.6556 57.1296C60.7107 62.6842 63.8821 67.7114 68.2411 67.5133C74.0592 67.2488 76.3953 70.7088 76.836 72.4719ZM60.7931 57.1232C61.6023 59.1909 62.555 61.0911 63.6366 62.5739C65.1886 64.7014 66.7011 65.5812 68.1503 65.5153C74.974 65.2052 78.1183 69.3547 78.7763 71.9868L78.7879 72.033L78.7972 72.0797C79.2042 74.1149 79.0894 77.1924 77.4061 79.9709C75.6619 82.8499 72.4136 85.1132 67.1397 85.6992C61.6568 86.3084 56.999 84.0043 53.5143 81.0988C51.2738 79.2308 49.4423 77.0556 48.0861 75.0706C47.0779 76.5271 45.7654 78.1154 44.1627 79.6172C41.2956 82.3038 37.4065 84.7991 32.5664 85.6791C26.2245 86.8322 21.6882 83.7156 20.3738 79.2796C19.0855 74.9315 21.0953 69.8446 26.4954 67.6445C28.3097 66.9054 30.0732 65.1746 31.6981 62.6758C32.7921 60.9935 33.7604 59.0603 34.5952 57.0639C30.2175 57.1092 25.9717 56.4478 22.7403 54.8117C20.7111 53.7843 18.9762 52.3164 17.9513 50.2951C16.9141 48.2496 16.7177 45.8603 17.3761 43.2268C18.3714 39.2453 21.4349 37.1315 24.8708 36.146C27.2306 35.4691 29.897 35.2738 32.5293 35.3482C31.8822 33.4148 31.5309 31.3325 31.5309 29.1667C31.5309 19.2799 38.9295 10.9686 48.4067 10.9686C57.8839 10.9686 65.2825 19.2799 65.2825 29.1667C65.2825 31.2336 64.9625 33.2245 64.3708 35.0825C66.7443 34.9362 69.12 35.041 71.2447 35.5804C74.4878 36.4037 77.366 38.3216 78.4477 42.0183C79.2366 44.7145 79.1177 47.1885 78.1213 49.3402C77.1377 51.4642 75.3999 53.0573 73.3375 54.2143C69.9666 56.1053 65.4491 56.995 60.7931 57.1232Z" fill="#9E6017" fill-rule="evenodd"/><path clip-rule="evenodd" d="M60.2825 26.1667C60.2825 29.1877 59.523 32.0155 58.2006 34.4361C59.672 34.214 61.1587 34.0661 62.6002 34.0307C63.0435 32.4954 63.2825 30.8615 63.2825 29.1667C63.2825 23.6456 60.7457 18.7697 56.8721 15.8455C59.0023 18.648 60.2825 22.2446 60.2825 26.1667ZM73.064 38.3867C73.2478 38.7562 73.4033 39.1534 73.5281 39.5799C76.2358 48.8337 65.8915 52.5235 54.9617 52.1083C56.4698 56.8451 58.7667 61.6091 61.8951 63.5778C60.2455 61.2541 58.9382 58.1755 57.9617 55.1083C68.8915 55.5235 79.2358 51.8337 76.5281 42.5799C75.9504 40.6054 74.7141 39.2591 73.064 38.3867ZM73.4865 68.5457C73.6529 68.882 73.7674 69.1975 73.836 69.4719C74.4972 72.7776 73.4393 79.6536 63.9188 80.7114C59.089 81.2481 54.9057 79.1983 51.6539 76.4441C55.1181 80.4924 60.436 84.4317 66.9188 83.7114C76.4393 82.6536 77.4972 75.7776 76.836 72.4719C76.5642 71.3847 75.5717 69.6522 73.4865 68.5457ZM47.5805 72.1123C46.4868 70.6711 45.6414 69.2802 45.0761 68.1496C43.4233 71.6757 37.9357 79.1247 29.2086 80.7114C26.5979 81.1861 24.4416 80.8277 22.794 79.958C24.2057 82.6769 27.4534 84.576 32.2086 83.7114C40.2048 82.2575 45.4814 75.8823 47.5805 72.1123ZM33.3471 55.0569C33.7889 54.0147 34.1926 52.9614 34.5583 51.9225C28.8753 52.3961 23.3561 51.7192 19.8339 49.5781C21.8391 53.2404 27.2023 54.9197 33.3471 55.0569Z" fill="#CE8F44" fill-rule="evenodd"/><path d="M38.4948 67.9688C38.4948 68.521 38.047 68.9688 37.4948 68.9688C36.9425 68.9688 36.4948 68.521 36.4948 67.9688C36.4948 67.4165 36.9425 66.9688 37.4948 66.9688C38.047 66.9688 38.4948 67.4165 38.4948 67.9688Z" fill="#9E6017"/><path d="M28.5237 80.0897C28.5237 80.642 28.076 81.0897 27.5237 81.0897C26.9714 81.0897 26.5237 80.642 26.5237 80.0897C26.5237 79.5374 26.9714 79.0897 27.5237 79.0897C28.076 79.0897 28.5237 79.5374 28.5237 80.0897Z" fill="#9E6017"/><path d="M44.8362 73.1875C44.8362 73.7398 44.3885 74.1875 43.8362 74.1875C43.2839 74.1875 42.8362 73.7398 42.8362 73.1875C42.8362 72.6352 43.2839 72.1875 43.8362 72.1875C44.3885 72.1875 44.8362 72.6352 44.8362 73.1875Z" fill="#9E6017"/><path d="M42.8362 55.3828C42.8362 55.9351 42.3885 56.3828 41.8362 56.3828C41.2839 56.3828 40.8362 55.9351 40.8362 55.3828C40.8362 54.8305 41.2839 54.3828 41.8362 54.3828C42.3885 54.3828 42.8362 54.8305 42.8362 55.3828Z" fill="#9E6017"/><path d="M26.9369 49.2605C26.9369 49.8128 26.4892 50.2605 25.9369 50.2605C25.3846 50.2605 24.9369 49.8128 24.9369 49.2605C24.9369 48.7082 25.3846 48.2605 25.9369 48.2605C26.4892 48.2605 26.9369 48.7082 26.9369 49.2605Z" fill="#9E6017"/><path d="M35.7169 41.4688C35.7169 42.021 35.2692 42.4688 34.7169 42.4688C34.1646 42.4688 33.7169 42.021 33.7169 41.4688C33.7169 40.9165 34.1646 40.4688 34.7169 40.4688C35.2692 40.4688 35.7169 40.9165 35.7169 41.4688Z" fill="#9E6017"/><path d="M40.8362 47.5859C40.8362 48.1382 40.3885 48.5859 39.8362 48.5859C39.2839 48.5859 38.8362 48.1382 38.8362 47.5859C38.8362 47.0337 39.2839 46.5859 39.8362 46.5859C40.3885 46.5859 40.8362 47.0337 40.8362 47.5859Z" fill="#9E6017"/><path d="M43.4738 38.7451C43.4738 39.2974 43.026 39.7451 42.4738 39.7451C41.9215 39.7451 41.4738 39.2974 41.4738 38.7451C41.4738 38.1928 41.9215 37.7451 42.4738 37.7451C43.026 37.7451 43.4738 38.1928 43.4738 38.7451Z" fill="#9E6017"/><path d="M59.7604 43.5013C59.7604 44.0536 59.3127 44.5013 58.7604 44.5013C58.2081 44.5013 57.7604 44.0536 57.7604 43.5013C57.7604 42.9491 58.2081 42.5013 58.7604 42.5013C59.3127 42.5013 59.7604 42.9491 59.7604 43.5013Z" fill="#9E6017"/><path d="M59.7604 33.9688C59.7604 34.521 59.3127 34.9688 58.7604 34.9688C58.2081 34.9688 57.7604 34.521 57.7604 33.9688C57.7604 33.4165 58.2081 32.9688 58.7604 32.9688C59.3127 32.9688 59.7604 33.4165 59.7604 33.9688Z" fill="#9E6017"/><path d="M48.4143 28.7812C48.4143 29.3335 47.9666 29.7812 47.4143 29.7812C46.862 29.7812 46.4143 29.3335 46.4143 28.7812C46.4143 28.229 46.862 27.7812 47.4143 27.7812C47.9666 27.7812 48.4143 28.229 48.4143 28.7812Z" fill="#9E6017"/><path d="M52.391 17.4688C52.391 18.021 51.9433 18.4688 51.391 18.4688C50.8387 18.4688 50.391 18.021 50.391 17.4688C50.391 16.9165 50.8387 16.4688 51.391 16.4688C51.9433 16.4688 52.391 16.9165 52.391 17.4688Z" fill="#9E6017"/><path d="M41.8362 19.7812C41.8362 20.3335 41.3885 20.7812 40.8362 20.7812C40.2839 20.7812 39.8362 20.3335 39.8362 19.7812C39.8362 19.229 40.2839 18.7812 40.8362 18.7812C41.3885 18.7812 41.8362 19.229 41.8362 19.7812Z" fill="#9E6017"/><path d="M71.4479 45.5859C71.4479 46.1382 71.0002 46.5859 70.4479 46.5859C69.8956 46.5859 69.4479 46.1382 69.4479 45.5859C69.4479 45.0337 69.8956 44.5859 70.4479 44.5859C71.0002 44.5859 71.4479 45.0337 71.4479 45.5859Z" fill="#9E6017"/><path d="M57.9948 51.2605C57.9948 51.8128 57.547 52.2605 56.9948 52.2605C56.4425 52.2605 55.9948 51.8128 55.9948 51.2605C55.9948 50.7082 56.4425 50.2605 56.9948 50.2605C57.547 50.2605 57.9948 50.7082 57.9948 51.2605Z" fill="#9E6017"/><path d="M56.3496 63.5586C56.3496 64.1109 55.9019 64.5586 55.3496 64.5586C54.7973 64.5586 54.3496 64.1109 54.3496 63.5586C54.3496 63.0063 54.7973 62.5586 55.3496 62.5586C55.9019 62.5586 56.3496 63.0063 56.3496 63.5586Z" fill="#9E6017"/><path d="M53.9323 71.7031C53.9323 72.2554 53.4845 72.7031 52.9323 72.7031C52.38 72.7031 51.9323 72.2554 51.9323 71.7031C51.9323 71.1508 52.38 70.7031 52.9323 70.7031C53.4845 70.7031 53.9323 71.1508 53.9323 71.7031Z" fill="#9E6017"/><path d="M60.1705 75.1217C60.1705 75.674 59.7228 76.1217 59.1705 76.1217C58.6182 76.1217 58.1705 75.674 58.1705 75.1217C58.1705 74.5694 58.6182 74.1217 59.1705 74.1217C59.7228 74.1217 60.1705 74.5694 60.1705 75.1217Z" fill="#9E6017"/><path d="M68.2007 79.7467C68.2007 80.299 67.753 80.7467 67.2007 80.7467C66.6484 80.7467 66.2007 80.299 66.2007 79.7467C66.2007 79.1944 66.6484 78.7467 67.2007 78.7467C67.753 78.7467 68.2007 79.1944 68.2007 79.7467Z" fill="#9E6017"/><path clip-rule="evenodd" d="M39.9157 19.2847C40.5696 19.7933 40.6874 20.7357 40.1788 21.3896C39.2291 22.6107 37.2444 26.6095 37.9797 31.7566C38.0968 32.5767 37.527 33.3365 36.7069 33.4536C35.8868 33.5708 35.127 33.0009 35.0098 32.1808C34.1451 26.1279 36.4271 21.3267 37.8107 19.5478C38.3193 18.8939 39.2618 18.7761 39.9157 19.2847Z" fill="#F9B76B" fill-rule="evenodd"/><path clip-rule="evenodd" d="M30.45 39.1049C30.6509 39.9086 30.1623 40.723 29.3586 40.924C25.2889 41.9414 23.7313 45.3031 23.4706 46.7371C23.3224 47.5521 22.5415 48.0927 21.7264 47.9445C20.9114 47.7963 20.3708 47.0155 20.519 46.2004C20.9249 43.9677 23.1006 39.3961 28.631 38.0135C29.4347 37.8126 30.2491 38.3012 30.45 39.1049Z" fill="#F9B76B" fill-rule="evenodd"/><path clip-rule="evenodd" d="M38.9691 57.0458C39.755 57.3077 40.1798 58.1572 39.9178 58.9431C39.3852 60.541 38.3149 63.068 36.8036 65.5695C35.3063 68.0478 33.2863 70.6522 30.8001 72.2343C29.4963 73.0639 28.7393 73.6926 28.2056 74.3067C27.6803 74.9113 27.309 75.5726 26.8671 76.5743C26.5328 77.3322 25.6472 77.6756 24.8893 77.3412C24.1314 77.0068 23.788 76.1213 24.1224 75.3633C24.618 74.24 25.1328 73.2692 25.9412 72.339C26.7412 71.4183 27.7654 70.6095 29.1895 69.7033C31.1032 68.4854 32.8332 66.3398 34.2359 64.0181C35.6246 61.7196 36.6043 59.3966 37.0717 57.9944C37.3337 57.2085 38.1832 56.7838 38.9691 57.0458Z" fill="#F9B76B" fill-rule="evenodd"/><path clip-rule="evenodd" d="M40.8177 31.0567C41.2344 30.6943 41.866 30.7384 42.2284 31.1551C43.2104 32.2844 45.0807 33.6593 47.426 34.0567C49.713 34.4443 52.575 33.9251 55.6726 31.0754C56.079 30.7014 56.7116 30.7278 57.0856 31.1342C57.4595 31.5407 57.4331 32.1733 57.0267 32.5472C53.5128 35.78 50.0389 36.528 47.0918 36.0286C44.2029 35.539 41.9411 33.8726 40.7192 32.4675C40.3568 32.0507 40.4009 31.4191 40.8177 31.0567Z" fill="#763B04" fill-rule="evenodd"/><path d="M46.7629 23.5469C46.7629 24.6423 45.8749 25.5304 44.7795 25.5304C43.6841 25.5304 42.7961 24.6423 42.7961 23.5469C42.7961 22.4515 43.6841 21.5635 44.7795 21.5635C45.8749 21.5635 46.7629 22.4515 46.7629 23.5469Z" fill="#763B04"/><path clip-rule="evenodd" d="M48.7629 23.5469C48.7629 25.7469 46.9795 27.5304 44.7795 27.5304C42.5795 27.5304 40.7961 25.7469 40.7961 23.5469C40.7961 21.3469 42.5795 19.5635 44.7795 19.5635C46.9795 19.5635 48.7629 21.3469 48.7629 23.5469ZM44.7795 25.5304C45.8749 25.5304 46.7629 24.6423 46.7629 23.5469C46.7629 22.4515 45.8749 21.5635 44.7795 21.5635C43.6841 21.5635 42.7961 22.4515 42.7961 23.5469C42.7961 24.6423 43.6841 25.5304 44.7795 25.5304Z" fill="white" fill-rule="evenodd"/><path d="M55.3579 23.5469C55.3579 24.6423 54.4699 25.5304 53.3745 25.5304C52.279 25.5304 51.391 24.6423 51.391 23.5469C51.391 22.4515 52.279 21.5635 53.3745 21.5635C54.4699 21.5635 55.3579 22.4515 55.3579 23.5469Z" fill="#763B04"/><path clip-rule="evenodd" d="M57.3579 23.5469C57.3579 25.7469 55.5745 27.5304 53.3745 27.5304C51.1745 27.5304 49.391 25.7469 49.391 23.5469C49.391 21.3469 51.1745 19.5635 53.3745 19.5635C55.5745 19.5635 57.3579 21.3469 57.3579 23.5469ZM53.3745 25.5304C54.4699 25.5304 55.3579 24.6423 55.3579 23.5469C55.3579 22.4515 54.4699 21.5635 53.3745 21.5635C52.279 21.5635 51.391 22.4515 51.391 23.5469C51.391 24.6423 52.279 25.5304 53.3745 25.5304Z" fill="white" fill-rule="evenodd"/><path d="M51.1901 43.8088C52.7239 44.5503 53.3662 46.3947 52.6248 47.9285C51.8834 49.4623 50.0389 50.1047 48.5051 49.3632C46.9713 48.6218 46.329 46.7774 47.0704 45.2436C47.8118 43.7097 49.6563 43.0674 51.1901 43.8088Z" fill="#FF4D26"/><path clip-rule="evenodd" d="M52.0605 42.0082C54.5888 43.2304 55.6476 46.2707 54.4254 48.799C53.2033 51.3273 50.163 52.3861 47.6347 51.164C45.1064 49.9418 44.0476 46.9015 45.2697 44.3732C46.4919 41.8449 49.5322 40.7861 52.0605 42.0082ZM52.6248 47.9286C53.3662 46.3948 52.7239 44.5503 51.1901 43.8089C49.6563 43.0675 47.8118 43.7098 47.0704 45.2436C46.329 46.7774 46.9713 48.6219 48.5051 49.3633C50.0389 50.1047 51.8834 49.4624 52.6248 47.9286Z" fill="#CC8736" fill-rule="evenodd"/><path clip-rule="evenodd" d="M52.6248 47.9285C53.3662 46.3947 52.7239 44.5503 51.1901 43.8088C50.8617 43.6501 50.519 43.5548 50.176 43.5181C50.3675 43.5597 50.5573 43.6244 50.7415 43.7135C51.9995 44.3216 52.5264 45.8344 51.9183 47.0924C51.3102 48.3504 49.7974 48.8772 48.5394 48.2691C47.2814 47.661 46.7546 46.1482 47.3627 44.8902C47.4517 44.706 47.5602 44.5374 47.6845 44.3858C47.4385 44.6276 47.2291 44.9151 47.0704 45.2436C46.329 46.7774 46.9713 48.6218 48.5051 49.3632C50.0389 50.1047 51.8834 49.4623 52.6248 47.9285Z" fill="#D43816" fill-rule="evenodd"/><path d="M49.1462 58.6183C50.59 58.8391 51.5814 60.1885 51.3605 61.6323C51.1397 63.0761 49.7903 64.0675 48.3465 63.8466C46.9027 63.6258 45.9113 62.2764 46.1322 60.8326C46.353 59.3888 47.7024 58.3974 49.1462 58.6183Z" fill="#FF4D26"/><path clip-rule="evenodd" d="M49.4486 56.6413C51.9842 57.0292 53.7254 59.3991 53.3375 61.9348C52.9497 64.4704 50.5798 66.2116 48.0441 65.8237C45.5085 65.4359 43.7673 63.0659 44.1552 60.5303C44.543 57.9946 46.913 56.2535 49.4486 56.6413ZM51.3605 61.6324C51.5814 60.1886 50.59 58.8392 49.1462 58.6183C47.7024 58.3975 46.353 59.3889 46.1322 60.8327C45.9113 62.2764 46.9027 63.6259 48.3465 63.8467C49.7903 64.0675 51.1397 63.0761 51.3605 61.6324Z" fill="#CC8635" fill-rule="evenodd"/><path clip-rule="evenodd" d="M51.3605 61.6323C51.5814 60.1885 50.59 58.8391 49.1462 58.6183C48.8368 58.5709 48.5318 58.5793 48.2413 58.6358C48.4089 58.6216 48.581 58.6267 48.7547 58.6533C49.9388 58.8344 50.752 59.9412 50.5708 61.1253C50.3897 62.3095 49.2829 63.1226 48.0988 62.9415C46.9146 62.7604 46.1015 61.6536 46.2826 60.4694C46.3092 60.2957 46.3557 60.13 46.4194 59.9742C46.2786 60.2346 46.1795 60.5232 46.1322 60.8326C45.9113 62.2764 46.9027 63.6258 48.3465 63.8466C49.7903 64.0675 51.1397 63.0761 51.3605 61.6323Z" fill="#D43816" fill-rule="evenodd"/><path d="M49.1899 44.5538C49.5861 44.7453 49.7521 45.2218 49.5605 45.618C49.369 46.0143 48.8925 46.1802 48.4963 45.9887C48.1 45.7971 47.9341 45.3206 48.1256 44.9244C48.3172 44.5282 48.7936 44.3622 49.1899 44.5538Z" fill="#FF9E74"/><path d="M47.688 59.4584C48.123 59.5249 48.4218 59.9315 48.3552 60.3666C48.2887 60.8016 47.8821 61.1004 47.447 61.0338C47.012 60.9673 46.7132 60.5607 46.7798 60.1256C46.8463 59.6906 47.2529 59.3918 47.688 59.4584Z" fill="#FF9E74"/><path d="M58.9948 64.9688C58.9948 65.521 58.547 65.9688 57.9948 65.9688C57.4425 65.9688 56.9948 65.521 56.9948 64.9688C56.9948 64.4165 57.4425 63.9688 57.9948 63.9688C58.547 63.9688 58.9948 64.4165 58.9948 64.9688Z" fill="#C67C27"/><path d="M71.7135 49.6707C71.7135 50.2229 71.2658 50.6707 70.7135 50.6707C70.1612 50.6707 69.7135 50.2229 69.7135 49.6707C69.7135 49.1184 70.1612 48.6707 70.7135 48.6707C71.2658 48.6707 71.7135 49.1184 71.7135 49.6707Z" fill="#C67C27"/><path d="M61.9948 66.9688C61.9948 67.521 61.547 67.9688 60.9948 67.9688C60.4425 67.9688 59.9948 67.521 59.9948 66.9688C59.9948 66.4165 60.4425 65.9688 60.9948 65.9688C61.547 65.9688 61.9948 66.4165 61.9948 66.9688Z" fill="#C67C27"/><path d="M59.9948 69.7031C59.9948 70.1087 59.666 70.4375 59.2604 70.4375C58.8548 70.4375 58.526 70.1087 58.526 69.7031C58.526 69.2975 58.8548 68.9688 59.2604 68.9688C59.666 68.9688 59.9948 69.2975 59.9948 69.7031Z" fill="#C67C27"/><path d="M63.9948 69.7031C63.9948 70.1087 63.666 70.4375 63.2604 70.4375C62.8548 70.4375 62.526 70.1087 62.526 69.7031C62.526 69.2975 62.8548 68.9688 63.2604 68.9688C63.666 68.9688 63.9948 69.2975 63.9948 69.7031Z" fill="#C67C27"/><path d="M66.901 71.9219C66.901 72.3275 66.5722 72.6562 66.1666 72.6562C65.761 72.6562 65.4323 72.3275 65.4323 71.9219C65.4323 71.5163 65.761 71.1875 66.1666 71.1875C66.5722 71.1875 66.901 71.5163 66.901 71.9219Z" fill="#C67C27"/><path d="M71.1823 69.7031C71.1823 70.1087 70.8535 70.4375 70.4479 70.4375C70.0423 70.4375 69.7135 70.1087 69.7135 69.7031C69.7135 69.2975 70.0423 68.9688 70.4479 68.9688C70.8535 68.9688 71.1823 69.2975 71.1823 69.7031Z" fill="#C67C27"/><path d="M74.526 72.9019C74.526 73.3074 74.1972 73.6362 73.7916 73.6362C73.386 73.6362 73.0573 73.3074 73.0573 72.9019C73.0573 72.4963 73.386 72.1675 73.7916 72.1675C74.1972 72.1675 74.526 72.4963 74.526 72.9019Z" fill="#C67C27"/><path d="M70.2057 72.2461C70.2057 72.4726 70.0221 72.6562 69.7955 72.6562C69.569 72.6562 69.3854 72.4726 69.3854 72.2461C69.3854 72.0196 69.569 71.8359 69.7955 71.8359C70.0221 71.8359 70.2057 72.0196 70.2057 72.2461Z" fill="#C67C27"/><path d="M60.5807 63.5586C60.5807 63.7851 60.3971 63.9688 60.1705 63.9688C59.944 63.9688 59.7604 63.7851 59.7604 63.5586C59.7604 63.3321 59.944 63.1484 60.1705 63.1484C60.3971 63.1484 60.5807 63.3321 60.5807 63.5586Z" fill="#C67C27"/><path d="M57.9948 60.7148C57.9948 60.9414 57.8111 61.125 57.5846 61.125C57.3581 61.125 57.1744 60.9414 57.1744 60.7148C57.1744 60.4883 57.3581 60.3047 57.5846 60.3047C57.8111 60.3047 57.9948 60.4883 57.9948 60.7148Z" fill="#C67C27"/><path d="M68.021 52.1523C68.021 52.3789 67.8374 52.5625 67.6108 52.5625C67.3843 52.5625 67.2007 52.3789 67.2007 52.1523C67.2007 51.9258 67.3843 51.7422 67.6108 51.7422C67.8374 51.7422 68.021 51.9258 68.021 52.1523Z" fill="#C67C27"/><path d="M74.4897 48.6707C74.4897 48.8972 74.3061 49.0808 74.0796 49.0808C73.8531 49.0808 73.6694 48.8972 73.6694 48.6707C73.6694 48.4441 73.8531 48.2605 74.0796 48.2605C74.3061 48.2605 74.4897 48.4441 74.4897 48.6707Z" fill="#C67C27"/><path d="M75.4897 45.4207C75.4897 45.6472 75.3061 45.8308 75.0796 45.8308C74.8531 45.8308 74.6694 45.6472 74.6694 45.4207C74.6694 45.1941 74.8531 45.0105 75.0796 45.0105C75.3061 45.0105 75.4897 45.1941 75.4897 45.4207Z" fill="#C67C27"/><path d="M73.021 47.8503C73.021 48.0769 72.8374 48.2605 72.6108 48.2605C72.3843 48.2605 72.2007 48.0769 72.2007 47.8503C72.2007 47.6238 72.3843 47.4402 72.6108 47.4402C72.8374 47.4402 73.021 47.6238 73.021 47.8503Z" fill="#C67C27"/><path d="M68.8413 49.6707C68.8413 49.8972 68.6577 50.0808 68.4312 50.0808C68.2046 50.0808 68.021 49.8972 68.021 49.6707C68.021 49.4441 68.2046 49.2605 68.4312 49.2605C68.6577 49.2605 68.8413 49.4441 68.8413 49.6707Z" fill="#C67C27"/><path d="M63.0601 52.9727C63.0601 53.1992 62.8764 53.3828 62.6499 53.3828C62.4234 53.3828 62.2397 53.1992 62.2397 52.9727C62.2397 52.7461 62.4234 52.5625 62.6499 52.5625C62.8764 52.5625 63.0601 52.7461 63.0601 52.9727Z" fill="#C67C27"/><path clip-rule="evenodd" d="M25.0741 38.9644C24.8669 38.7936 24.4781 38.7126 24.0364 38.7568C23.4869 38.8118 22.9968 38.4108 22.9419 37.8613C22.8869 37.3117 23.2879 36.8217 23.8374 36.7667C24.4976 36.7007 25.5366 36.7537 26.3463 37.4211C27.2416 38.1592 27.5441 39.3701 27.2315 40.9331C27.0604 41.7887 27.0264 42.1806 27.0695 42.4175C27.0897 42.5287 27.1226 42.6506 27.4668 42.8801C27.9977 43.234 28.7392 43.7995 29.1234 44.7105C29.5312 45.6772 29.4535 46.8156 28.7982 48.1262C28.3593 49.004 28.3715 49.4182 28.4236 49.6442C28.4819 49.8966 28.6077 50.0822 28.8708 50.4702C28.929 50.5561 28.994 50.6519 29.0664 50.7606C29.4167 51.286 29.9115 52.1409 30.0634 53.0415C30.1417 53.5056 30.1402 54.0471 29.919 54.5748C29.6894 55.1224 29.2653 55.5542 28.6816 55.846C28.1876 56.093 27.5869 55.8928 27.3399 55.3988C27.0929 54.9049 27.2932 54.3042 27.7871 54.0572C27.9968 53.9524 28.052 53.8553 28.0745 53.8016C28.1053 53.7281 28.1287 53.596 28.0913 53.3742C28.0118 52.9028 27.7132 52.3364 27.4023 51.87C27.364 51.8125 27.3208 51.7502 27.2744 51.6833C27.0042 51.2935 26.6257 50.7477 26.4749 50.0939C26.2791 49.2455 26.4565 48.3375 27.0094 47.2318C27.48 46.2906 27.4023 45.7761 27.2806 45.4877C27.1354 45.1434 26.8181 44.8513 26.3574 44.5442C25.7098 44.1125 25.2468 43.5732 25.1018 42.7753C24.9796 42.1032 25.1109 41.338 25.2703 40.5408C25.4992 39.3964 25.1957 39.0646 25.0741 38.9644Z" fill="#13DE64" fill-rule="evenodd"/><path clip-rule="evenodd" d="M27.0741 38.9643C26.8668 38.7934 26.4781 38.7125 26.0364 38.7567C25.4868 38.8116 24.9968 38.4107 24.9418 37.8612C24.8869 37.3116 25.2878 36.8216 25.8374 36.7666C26.4976 36.7006 27.5366 36.7536 28.3462 37.421C29.2416 38.1591 29.5441 39.37 29.2315 40.9329C29.0603 41.7886 29.0264 42.1805 29.0695 42.4174C29.0897 42.5286 29.1225 42.6505 29.4667 42.8799C29.9977 43.2339 30.7392 43.7994 31.1234 44.7103C31.5311 45.6771 31.4535 46.8155 30.7982 48.1261C30.3593 49.0038 30.3715 49.4181 30.4236 49.6441C30.4819 49.8965 30.6077 50.082 30.8707 50.4701C30.929 50.556 30.9939 50.6518 31.0664 50.7605C31.4166 51.2858 31.9115 52.1408 32.0634 53.0414C32.1416 53.5055 32.1402 54.047 31.9189 54.5747C31.6894 55.1222 31.2653 55.5541 30.6815 55.8459C30.1876 56.0929 29.5869 55.8927 29.3399 55.3987C29.0929 54.9047 29.2931 54.3041 29.7871 54.0571C29.9968 53.9522 30.052 53.8551 30.0745 53.8014C30.1053 53.7279 30.1286 53.5959 30.0912 53.374C30.0117 52.9027 29.7132 52.3362 29.4023 51.8699C29.364 51.8124 29.3207 51.7501 29.2743 51.6831C29.0041 51.2934 28.6257 50.7476 28.4748 50.0938C28.279 49.2454 28.4565 48.3373 29.0093 47.2317C29.4799 46.2905 29.4023 45.776 29.2806 45.4876C29.1354 45.1433 28.8181 44.8512 28.3573 44.544C27.7098 44.1124 27.2468 43.5731 27.1017 42.7752C26.9795 42.1031 27.1109 41.3379 27.2703 40.5407C27.4992 39.3963 27.1956 39.0645 27.0741 38.9643Z" fill="#FFF7CD" fill-rule="evenodd"/><path clip-rule="evenodd" d="M27.2514 71.3549C27.1145 71.3583 26.9066 71.4634 26.7074 71.7028C26.3541 72.1273 25.7236 72.1851 25.2991 71.8319C24.8745 71.4786 24.8168 70.8481 25.17 70.4235C25.5381 69.9812 26.2356 69.3799 27.201 69.3555C28.234 69.3295 29.1609 69.9649 29.9365 71.1283C30.3647 71.7706 30.5851 72.0379 30.7531 72.1636C30.8265 72.2185 30.8949 72.2662 31.1887 72.228C31.7324 72.1574 32.5381 72.1073 33.3423 72.4873C34.1812 72.8837 34.8404 73.6585 35.2735 74.8712C35.5576 75.6669 35.8167 75.9219 35.9825 76.0353C36.1642 76.1595 36.3389 76.2052 36.7265 76.3069C36.8134 76.3296 36.9111 76.3552 37.022 76.3852C37.5541 76.5288 38.3737 76.8043 39.0207 77.3C39.3523 77.554 39.6879 77.9031 39.8888 78.3716C40.099 78.8619 40.129 79.4083 39.9564 79.9706C39.7943 80.4986 39.2349 80.7951 38.7069 80.6331C38.1789 80.471 37.8823 79.9116 38.0444 79.3836C38.0849 79.2519 38.0654 79.1941 38.0507 79.1599C38.0267 79.1039 37.9619 79.0083 37.8044 78.8876C37.4733 78.634 36.9603 78.4401 36.5007 78.3161C36.4445 78.3009 36.3821 78.2852 36.3147 78.2683C35.9189 78.1689 35.3514 78.0264 34.854 77.6864C34.2154 77.25 33.7555 76.5673 33.39 75.5439C33.0855 74.6913 32.727 74.4086 32.4878 74.2956C32.2139 74.1662 31.8813 74.1549 31.4463 74.2114C30.7614 74.3003 30.1368 74.2002 29.5552 73.7651C29.0682 73.4009 28.6714 72.8363 28.2724 72.2377C27.693 71.3685 27.3207 71.3531 27.2514 71.3549Z" fill="#1BC1E6" fill-rule="evenodd"/><path clip-rule="evenodd" d="M28.2515 70.3549C28.1146 70.3583 27.9067 70.4634 27.7075 70.7028C27.3542 71.1273 26.7237 71.1851 26.2991 70.8319C25.8746 70.4786 25.8168 69.8481 26.1701 69.4235C26.5381 68.9812 27.2356 68.3799 28.201 68.3555C29.234 68.3295 30.161 68.9649 30.9366 70.1283C31.3647 70.7706 31.5852 71.0379 31.7532 71.1636C31.8266 71.2185 31.8949 71.2662 32.1887 71.228C32.7325 71.1574 33.5382 71.1073 34.3423 71.4873C35.1812 71.8837 35.8404 72.6585 36.2735 73.8712C36.5577 74.6669 36.8168 74.9219 36.9826 75.0353C37.1643 75.1595 37.339 75.2052 37.7265 75.3069C37.8135 75.3296 37.9112 75.3552 38.022 75.3852C38.5542 75.5288 39.3737 75.8043 40.0208 76.3C40.3523 76.554 40.688 76.9031 40.8889 77.3716C41.0991 77.8619 41.129 78.4083 40.9564 78.9706C40.7943 79.4986 40.2349 79.7951 39.707 79.6331C39.179 79.471 38.8824 78.9116 39.0445 78.3836C39.0849 78.2519 39.0654 78.1941 39.0508 78.1599C39.0267 78.1039 38.962 78.0083 38.8045 77.8876C38.4734 77.634 37.9604 77.4401 37.5008 77.3161C37.4445 77.3009 37.3822 77.2852 37.3148 77.2683C36.9189 77.1689 36.3514 77.0264 35.8541 76.6864C35.2155 76.25 34.7556 75.5673 34.3901 74.5439C34.0856 73.6913 33.7271 73.4086 33.4879 73.2956C33.214 73.1662 32.8814 73.1549 32.4464 73.2114C31.7615 73.3003 31.1369 73.2002 30.5553 72.7651C30.0683 72.4009 29.6715 71.8363 29.2725 71.2377C28.6931 70.3685 28.3208 70.3531 28.2515 70.3549Z" fill="#FFF7CD" fill-rule="evenodd"/><path clip-rule="evenodd" d="M58.7314 79.7941C58.7242 79.9309 58.8129 80.1462 59.0362 80.3634C59.4321 80.7484 59.441 81.3815 59.056 81.7775C58.671 82.1734 58.0379 82.1823 57.6419 81.7973C57.2293 81.3961 56.6837 80.6542 56.7341 79.6898C56.788 78.6579 57.4931 77.7828 58.713 77.0995C59.3865 76.7223 59.6701 76.5232 59.8083 76.3654C59.8687 76.2965 59.9216 76.232 59.9063 75.9361C59.8779 75.3885 59.8903 74.5814 60.3313 73.809C60.7913 73.0033 61.6148 72.4059 62.8573 72.0679C63.6726 71.8461 63.9469 71.6075 64.0727 71.4509C64.2106 71.2794 64.2698 71.1088 64.401 70.7302C64.4305 70.6453 64.4636 70.5499 64.502 70.4417C64.6863 69.9222 65.0243 69.1264 65.5686 68.5196C65.8474 68.2087 66.2215 67.9011 66.7041 67.737C67.2091 67.5653 67.7563 67.5777 68.3035 67.7932C68.8173 67.9957 69.0698 68.5763 68.8674 69.0902C68.665 69.604 68.0843 69.8565 67.5705 69.6541C67.4423 69.6036 67.3832 69.6185 67.3479 69.6305C67.2902 69.6501 67.1899 69.7073 67.0574 69.8551C66.7789 70.1655 66.546 70.662 66.3868 71.1106C66.3673 71.1655 66.3468 71.2265 66.3248 71.2924C66.1951 71.6794 66.0091 72.2342 65.6317 72.7038C65.1472 73.3067 64.431 73.7124 63.3824 73.9977C62.5088 74.2354 62.1993 74.571 62.0681 74.8007C61.9179 75.0638 61.8809 75.3945 61.9036 75.8326C61.9394 76.5223 61.7912 77.1373 61.3125 77.6835C60.9117 78.1409 60.3181 78.4928 59.6904 78.8444C58.7791 79.3549 58.735 79.7248 58.7314 79.7941Z" fill="#1BC1E5" fill-rule="evenodd"/><path clip-rule="evenodd" d="M57.7313 78.7941C57.7242 78.9309 57.8128 79.1462 58.0361 79.3634C58.4321 79.7484 58.441 80.3815 58.056 80.7775C57.6709 81.1734 57.0378 81.1823 56.6419 80.7973C56.2293 80.3961 55.6837 79.6542 55.734 78.6898C55.7879 77.6579 56.4931 76.7828 57.713 76.0995C58.3865 75.7223 58.67 75.5232 58.8083 75.3654C58.8687 75.2965 58.9216 75.232 58.9063 74.9361C58.8779 74.3885 58.8903 73.5814 59.3313 72.809C59.7913 72.0033 60.6148 71.4059 61.8573 71.0679C62.6726 70.8461 62.9469 70.6075 63.0727 70.4509C63.2106 70.2794 63.2697 70.1088 63.401 69.7302C63.4304 69.6453 63.4635 69.5499 63.5019 69.4417C63.6863 68.9222 64.0243 68.1264 64.5685 67.5196C64.8474 67.2087 65.2214 66.9011 65.7041 66.737C66.2091 66.5653 66.7562 66.5777 67.3035 66.7932C67.8173 66.9957 68.0698 67.5763 67.8674 68.0902C67.6649 68.604 67.0843 68.8565 66.5704 68.6541C66.4423 68.6036 66.3831 68.6185 66.3478 68.6305C66.2902 68.6501 66.1899 68.7073 66.0574 68.8551C65.7789 69.1655 65.546 69.662 65.3867 70.1106C65.3673 70.1655 65.3468 70.2265 65.3247 70.2924C65.195 70.6794 65.0091 71.2342 64.6317 71.7038C64.1471 72.3067 63.431 72.7124 62.3823 72.9977C61.5088 73.2354 61.1992 73.571 61.0681 73.8007C60.9179 74.0638 60.8809 74.3945 60.9036 74.8326C60.9393 75.5223 60.7912 76.1373 60.3125 76.6835C59.9117 77.1409 59.3181 77.4928 58.6904 77.8444C57.7791 78.3549 57.7349 78.7248 57.7313 78.7941Z" fill="#FFF7CD" fill-rule="evenodd"/><path clip-rule="evenodd" d="M70.6503 38.9644C70.8575 38.7936 71.2463 38.7126 71.688 38.7568C72.2375 38.8118 72.7276 38.4108 72.7825 37.8613C72.8375 37.3117 72.4365 36.8217 71.887 36.7667C71.2268 36.7007 70.1878 36.7537 69.3781 37.4211C68.4828 38.1592 68.1803 39.3701 68.4929 40.9331C68.664 41.7887 68.698 42.1806 68.6549 42.4175C68.6347 42.5287 68.6018 42.6506 68.2576 42.8801C67.7267 43.234 66.9852 43.7995 66.601 44.7105C66.1932 45.6772 66.2709 46.8156 66.9262 48.1262C67.3651 49.004 67.3529 49.4182 67.3008 49.6442C67.2425 49.8966 67.1167 50.0822 66.8536 50.4702C66.7954 50.5561 66.7304 50.6519 66.658 50.7606C66.3077 51.286 65.8129 52.1409 65.661 53.0415C65.5827 53.5056 65.5842 54.0471 65.8054 54.5748C66.035 55.1224 66.4591 55.5542 67.0428 55.846C67.5368 56.093 68.1375 55.8928 68.3845 55.3988C68.6315 54.9049 68.4312 54.3042 67.9372 54.0572C67.7276 53.9524 67.6724 53.8553 67.6499 53.8016C67.6191 53.7281 67.5957 53.596 67.6331 53.3742C67.7126 52.9028 68.0112 52.3364 68.3221 51.87C68.3604 51.8125 68.4036 51.7502 68.45 51.6833C68.7202 51.2935 69.0987 50.7477 69.2495 50.0939C69.4453 49.2455 69.2679 48.3375 68.715 47.2318C68.2444 46.2906 68.3221 45.7761 68.4438 45.4877C68.589 45.1434 68.9063 44.8513 69.367 44.5442C70.0145 44.1125 70.4776 43.5732 70.6226 42.7753C70.7448 42.1032 70.6135 41.338 70.4541 40.5408C70.2252 39.3964 70.5287 39.0646 70.6503 38.9644Z" fill="#13DE64" fill-rule="evenodd"/><path clip-rule="evenodd" d="M68.6503 38.9643C68.8576 38.7934 69.2463 38.7125 69.688 38.7567C70.2376 38.8116 70.7276 38.4107 70.7826 37.8612C70.8375 37.3116 70.4366 36.8216 69.887 36.7666C69.2268 36.7006 68.1878 36.7536 67.3782 37.421C66.4828 38.1591 66.1803 39.37 66.4929 40.9329C66.6641 41.7886 66.698 42.1805 66.6549 42.4174C66.6347 42.5286 66.6019 42.6505 66.2577 42.8799C65.7267 43.2339 64.9852 43.7994 64.601 44.7103C64.1932 45.6771 64.2709 46.8155 64.9262 48.1261C65.3651 49.0038 65.3529 49.4181 65.3008 49.6441C65.2425 49.8965 65.1167 50.082 64.8537 50.4701C64.7954 50.556 64.7305 50.6518 64.658 50.7605C64.3078 51.2858 63.8129 52.1408 63.661 53.0414C63.5827 53.5055 63.5842 54.047 63.8054 54.5747C64.035 55.1222 64.4591 55.5541 65.0429 55.8459C65.5368 56.0929 66.1375 55.8927 66.3845 55.3987C66.6315 54.9047 66.4313 54.3041 65.9373 54.0571C65.7276 53.9522 65.6724 53.8551 65.6499 53.8014C65.6191 53.7279 65.5958 53.5959 65.6332 53.374C65.7127 52.9027 66.0112 52.3362 66.3221 51.8699C66.3604 51.8124 66.4036 51.7501 66.4501 51.6831C66.7203 51.2934 67.0987 50.7476 67.2496 50.0938C67.4454 49.2454 67.2679 48.3373 66.7151 47.2317C66.2445 46.2905 66.3221 45.776 66.4438 45.4876C66.589 45.1433 66.9063 44.8512 67.3671 44.544C68.0146 44.1124 68.4776 43.5731 68.6227 42.7752C68.7449 42.1031 68.6135 41.3379 68.4541 40.5407C68.2252 39.3963 68.5288 39.0645 68.6503 38.9643Z" fill="#FFF7CD" fill-rule="evenodd"/></svg>